<svg xmlns="http://www.w3.org/2000/svg" viewBox="0 0 24 24" fill="none">
  <g stroke="#000" stroke-width="1.8" stroke-linecap="round" stroke-linejoin="round">
    <path d="M3 8V5a2 2 0 0 1 2-2h3"/>
    <path d="M16 3h3a2 2 0 0 1 2 2v3"/>
    <path d="M21 16v3a2 2 0 0 1-2 2h-3"/>
    <path d="M8 21H5a2 2 0 0 1-2-2v-3"/>

    <rect x="6" y="6" width="4" height="4" rx="1"/>
    <rect x="14" y="6" width="4" height="4" rx="1"/>
    <rect x="6" y="14" width="4" height="4" rx="1"/>
    <rect x="14" y="14" width="4" height="4" rx="1"/>
  </g>
</svg>
